<svg width="61" height="34" viewBox="0 0 61 34" fill="none" xmlns="http://www.w3.org/2000/svg">
<path fill-rule="evenodd" clip-rule="evenodd" d="M17 0C26.3879 0 34 7.61029 34 17C34 26.3897 26.3897 34 17 34C7.61029 34 0 26.3897 0 17C0 7.61029 7.61029 0 17 0Z" fill="#2B2A29"/>
<path fill-rule="evenodd" clip-rule="evenodd" d="M6.14291 24.5298C6.60339 24.9903 7.35478 24.9903 7.81525 24.5298L14.5064 17.8387C14.5135 17.8315 14.5207 17.8244 14.5278 17.8173C14.5349 17.8101 14.5421 17.803 14.5492 17.7959C14.5564 17.7887 14.5617 17.7816 14.5688 17.7726C14.576 17.7655 14.5813 17.7566 14.5885 17.7494C14.5956 17.7423 14.601 17.7334 14.6063 17.7262C14.6117 17.7191 14.6188 17.7102 14.6242 17.703C14.6367 17.687 14.6474 17.6709 14.6581 17.6549C14.6634 17.6459 14.6688 17.6388 14.6742 17.6299C14.6795 17.6209 14.6849 17.6138 14.6884 17.6049C14.6938 17.596 14.6974 17.5888 14.7027 17.5799C14.7081 17.571 14.7116 17.562 14.717 17.5549C14.7223 17.546 14.7259 17.5371 14.7295 17.5299C14.733 17.521 14.7384 17.5121 14.742 17.5031C14.7455 17.4942 14.7491 17.4853 14.7545 17.4764C14.758 17.4675 14.7616 17.4585 14.7652 17.4496C14.7687 17.4407 14.7723 17.4318 14.7759 17.4228C14.7795 17.4139 14.783 17.405 14.7848 17.3961C14.7884 17.3871 14.7902 17.3782 14.7937 17.3693C14.7973 17.3604 14.7991 17.3514 14.8027 17.3425C14.8044 17.3336 14.808 17.3247 14.8098 17.3157C14.8116 17.3068 14.8151 17.2979 14.8169 17.2872C14.8187 17.2783 14.8205 17.2693 14.8241 17.2586C14.8259 17.2497 14.8276 17.2408 14.8294 17.2301C14.8312 17.2212 14.833 17.2122 14.8348 17.2015C14.8366 17.1926 14.8383 17.1837 14.8383 17.173C14.8401 17.164 14.8401 17.1533 14.8419 17.1444C14.8437 17.1355 14.8437 17.1248 14.8455 17.1159C14.8455 17.1087 14.8473 17.1016 14.8473 17.0926V17.0873C14.8473 17.0784 14.8491 17.0677 14.8491 17.0587C14.8491 17.0498 14.8491 17.0427 14.8508 17.0338C14.8508 17.0248 14.8508 17.0159 14.8508 17.007C14.8508 16.9981 14.8508 16.9909 14.8508 16.982V16.9802C14.8508 16.9713 14.8508 16.9641 14.8491 16.9552V16.9534C14.8491 16.9463 14.8491 16.9392 14.8473 16.932V16.9285C14.8473 16.9213 14.8455 16.9142 14.8455 16.907C14.8455 16.8981 14.8437 16.8874 14.8419 16.8785C14.8401 16.8696 14.8401 16.8588 14.8383 16.8499C14.8366 16.841 14.8348 16.8321 14.8348 16.8214C14.833 16.8124 14.8312 16.8035 14.8294 16.7928C14.8276 16.7839 14.8259 16.775 14.8241 16.7643C14.8223 16.7553 14.8205 16.7464 14.8169 16.7357C14.8151 16.7268 14.8116 16.7178 14.8098 16.7071C14.808 16.6982 14.8044 16.6893 14.8027 16.6804C14.8009 16.6714 14.7973 16.6625 14.7937 16.6536C14.7902 16.6447 14.7884 16.6357 14.7848 16.6268C14.7812 16.6179 14.7777 16.609 14.7759 16.6001C14.7723 16.5911 14.7687 16.5822 14.7652 16.5733C14.7616 16.5644 14.758 16.5554 14.7545 16.5465C14.7509 16.5376 14.7473 16.5287 14.742 16.5197C14.7384 16.5108 14.733 16.5019 14.7295 16.493C14.7259 16.484 14.7206 16.4751 14.717 16.468C14.7116 16.4591 14.7081 16.4501 14.7027 16.443C14.6974 16.4341 14.6938 16.4269 14.6884 16.418C14.6831 16.4091 14.6777 16.4019 14.6724 16.393C14.667 16.3841 14.6617 16.377 14.6563 16.368C14.6509 16.3591 14.6456 16.352 14.6402 16.343C14.6349 16.3341 14.6295 16.327 14.6224 16.3198C14.617 16.3127 14.6099 16.3038 14.6045 16.2966C14.5992 16.2895 14.592 16.2806 14.5867 16.2734C14.5796 16.2663 14.5742 16.2574 14.5671 16.2502C14.5599 16.2431 14.5546 16.236 14.5474 16.227C14.5403 16.2199 14.5332 16.2128 14.526 16.2056C14.5189 16.1985 14.5117 16.1913 14.5046 16.1842L7.81525 9.47524C7.35478 9.01476 6.60339 9.01476 6.14291 9.47524C5.68244 9.93571 5.68244 10.6871 6.14291 11.1476L10.8137 15.8183H5.12381H4.20465H3.63887C2.98921 15.8183 2.45557 16.3502 2.45557 17.0016C2.45557 17.6513 2.98743 18.1849 3.63887 18.1849H4.20465H6.77294H10.8137L6.14291 22.8557C5.68423 23.3162 5.68423 24.0693 6.14291 24.5298Z" fill="#FEFEFE"/>
<path fill-rule="evenodd" clip-rule="evenodd" d="M27.8603 24.53C27.3998 24.9905 26.6484 24.9905 26.1879 24.53L19.4968 17.8389C19.4897 17.8318 19.4825 17.8246 19.4754 17.8175C19.4682 17.8104 19.4611 17.8032 19.454 17.7961C19.4468 17.7889 19.4415 17.7818 19.4343 17.7729C19.4272 17.7657 19.4218 17.7568 19.4147 17.7497C19.4076 17.7425 19.4022 17.7336 19.3969 17.7265C19.3915 17.7193 19.3844 17.7104 19.379 17.7033C19.3665 17.6872 19.3558 17.6712 19.3451 17.6551C19.3397 17.6462 19.3344 17.639 19.329 17.6301C19.3237 17.6212 19.3183 17.614 19.3148 17.6051C19.3094 17.5962 19.3058 17.5891 19.3005 17.5801C19.2951 17.5712 19.2916 17.5623 19.2862 17.5551C19.2808 17.5462 19.2773 17.5373 19.2737 17.5302C19.2701 17.5212 19.2648 17.5123 19.2612 17.5034C19.2576 17.4945 19.2541 17.4855 19.2487 17.4766C19.2452 17.4677 19.2416 17.4588 19.238 17.4498C19.2344 17.4409 19.2309 17.432 19.2273 17.4231C19.2237 17.4141 19.2202 17.4052 19.2184 17.3963C19.2148 17.3874 19.213 17.3784 19.2095 17.3695C19.2059 17.3606 19.2041 17.3517 19.2005 17.3428C19.1988 17.3338 19.1952 17.3249 19.1934 17.316C19.1916 17.3071 19.188 17.2981 19.1863 17.2874C19.1845 17.2785 19.1827 17.2696 19.1791 17.2589C19.1773 17.2499 19.1755 17.241 19.1738 17.2303C19.172 17.2214 19.1702 17.2125 19.1684 17.2018C19.1666 17.1928 19.1648 17.1839 19.1648 17.1732C19.1631 17.1643 19.1631 17.1536 19.1613 17.1446C19.1595 17.1357 19.1595 17.125 19.1577 17.1161C19.1577 17.1089 19.1559 17.1018 19.1559 17.0929V17.0875C19.1559 17.0786 19.1541 17.0679 19.1541 17.059C19.1541 17.05 19.1541 17.0429 19.1523 17.034C19.1523 17.0251 19.1523 17.0161 19.1523 17.0072C19.1523 16.9983 19.1523 16.9912 19.1523 16.9822V16.9804C19.1523 16.9715 19.1523 16.9644 19.1541 16.9555V16.9537C19.1541 16.9465 19.1541 16.9394 19.1559 16.9323V16.9287C19.1559 16.9215 19.1577 16.9144 19.1577 16.9073C19.1577 16.8983 19.1595 16.8876 19.1613 16.8787C19.1631 16.8698 19.1631 16.8591 19.1648 16.8502C19.1666 16.8412 19.1684 16.8323 19.1684 16.8216C19.1702 16.8127 19.172 16.8038 19.1738 16.793C19.1755 16.7841 19.1773 16.7752 19.1791 16.7645C19.1809 16.7556 19.1827 16.7466 19.1863 16.7359C19.188 16.727 19.1916 16.7181 19.1934 16.7074C19.1952 16.6984 19.1988 16.6895 19.2005 16.6806C19.2041 16.6717 19.2059 16.6628 19.2095 16.6538C19.213 16.6449 19.2148 16.636 19.2184 16.6271C19.2219 16.6181 19.2255 16.6092 19.2273 16.6003C19.2309 16.5914 19.2344 16.5824 19.238 16.5735C19.2416 16.5646 19.2452 16.5557 19.2487 16.5467C19.2523 16.5378 19.2559 16.5289 19.2612 16.52C19.2648 16.511 19.2701 16.5021 19.2737 16.4932C19.2773 16.4843 19.2826 16.4753 19.2862 16.4682C19.2916 16.4593 19.2951 16.4504 19.3005 16.4432C19.3058 16.4343 19.3094 16.4272 19.3148 16.4182C19.3201 16.4093 19.3255 16.4022 19.3308 16.3933C19.3362 16.3843 19.3415 16.3772 19.3469 16.3683C19.3522 16.3593 19.3576 16.3522 19.3629 16.3433C19.3683 16.3344 19.3737 16.3272 19.3808 16.3201C19.3861 16.3129 19.3933 16.304 19.3986 16.2969C19.404 16.2897 19.4111 16.2808 19.4165 16.2737C19.4236 16.2665 19.429 16.2576 19.4361 16.2505C19.4433 16.2433 19.4486 16.2362 19.4558 16.2273C19.4629 16.2201 19.47 16.213 19.4772 16.2058C19.4843 16.1987 19.4915 16.1916 19.4986 16.1844L26.1897 9.4933C26.6502 9.03283 27.4016 9.03283 27.8621 9.4933C28.3225 9.95378 28.3225 10.7052 27.8621 11.1656L23.1913 15.8364H28.8812H29.8003H30.3661C31.0158 15.8364 31.5494 16.3683 31.5494 17.0197C31.5494 17.6694 31.0175 18.203 30.3661 18.203H29.8003H27.232H23.1913L27.8621 22.8738C28.3207 23.3164 28.3207 24.0696 27.8603 24.53Z" fill="#FEFEFE"/>
<path fill-rule="evenodd" clip-rule="evenodd" d="M9.46987 27.8549C9.00939 27.3944 9.00939 26.643 9.46987 26.1826L16.161 19.4914C16.1681 19.4843 16.1753 19.4772 16.1824 19.47C16.1896 19.4629 16.1967 19.4557 16.2038 19.4486C16.211 19.4415 16.2181 19.4361 16.227 19.429C16.2342 19.4218 16.2431 19.4165 16.2502 19.4093C16.2574 19.4022 16.2663 19.3968 16.2734 19.3915C16.2806 19.3861 16.2895 19.379 16.2967 19.3736C16.3127 19.3611 16.3288 19.3504 16.3448 19.3397C16.3538 19.3344 16.3609 19.329 16.3698 19.3237C16.3788 19.3183 16.3859 19.313 16.3948 19.3094C16.4037 19.304 16.4109 19.3005 16.4198 19.2951C16.4287 19.2898 16.4377 19.2862 16.4448 19.2808C16.4537 19.2755 16.4626 19.2719 16.4698 19.2683C16.4787 19.2648 16.4876 19.2594 16.4965 19.2558C16.5055 19.2523 16.5144 19.2487 16.5233 19.2433C16.5322 19.2398 16.5412 19.2362 16.5501 19.2326C16.559 19.2291 16.5679 19.2255 16.5769 19.2219C16.5858 19.2184 16.5947 19.2148 16.6036 19.213C16.6126 19.2094 16.6215 19.2077 16.6304 19.2041C16.6393 19.2005 16.6483 19.1987 16.6572 19.1952C16.6661 19.1934 16.675 19.1898 16.684 19.188C16.6929 19.1862 16.7018 19.1827 16.7125 19.1809C16.7214 19.1791 16.7304 19.1773 16.7411 19.1737C16.75 19.172 16.7589 19.1702 16.7696 19.1684C16.7785 19.1666 16.7875 19.1648 16.7982 19.163C16.8071 19.1613 16.816 19.1595 16.8267 19.1595C16.8357 19.1577 16.8464 19.1577 16.8553 19.1559C16.8642 19.1541 16.8749 19.1541 16.8838 19.1523C16.891 19.1523 16.8981 19.1505 16.907 19.1505H16.9124C16.9213 19.1505 16.932 19.1488 16.941 19.1488C16.9499 19.1488 16.957 19.1488 16.9659 19.147C16.9749 19.147 16.9838 19.147 16.9927 19.147C17.0016 19.147 17.0088 19.147 17.0177 19.147H17.0195C17.0284 19.147 17.0356 19.147 17.0445 19.1488H17.0463C17.0534 19.1488 17.0605 19.1488 17.0677 19.1505H17.0712C17.0784 19.1505 17.0855 19.1523 17.0927 19.1523C17.1016 19.1523 17.1123 19.1541 17.1212 19.1559C17.1301 19.1577 17.1409 19.1577 17.1498 19.1595C17.1587 19.1612 17.1676 19.163 17.1783 19.163C17.1873 19.1648 17.1962 19.1666 17.2069 19.1684C17.2158 19.1702 17.2247 19.172 17.2354 19.1737C17.2444 19.1755 17.2533 19.1773 17.264 19.1809C17.2729 19.1827 17.2819 19.1862 17.2926 19.188C17.3015 19.1898 17.3104 19.1934 17.3193 19.1952C17.3283 19.1987 17.3372 19.2005 17.3461 19.2041C17.355 19.2077 17.364 19.2094 17.3729 19.213C17.3818 19.2166 17.3907 19.2201 17.3996 19.2219C17.4086 19.2255 17.4175 19.2291 17.4264 19.2326C17.4353 19.2362 17.4443 19.2398 17.4532 19.2433C17.4621 19.2469 17.471 19.2505 17.48 19.2558C17.4889 19.2594 17.4978 19.2648 17.5067 19.2683C17.5157 19.2719 17.5246 19.2773 17.5317 19.2808C17.5406 19.2862 17.5496 19.2898 17.5567 19.2951C17.5656 19.3005 17.5728 19.304 17.5817 19.3094C17.5906 19.3147 17.5978 19.3201 17.6067 19.3237C17.6156 19.329 17.6227 19.3344 17.6317 19.3397C17.6406 19.3451 17.6477 19.3504 17.6567 19.3558C17.6656 19.3611 17.6727 19.3665 17.6799 19.3736C17.687 19.379 17.6959 19.3861 17.7031 19.3915C17.7102 19.3968 17.7191 19.404 17.7263 19.4093C17.7334 19.4165 17.7423 19.4218 17.7495 19.429C17.7566 19.4361 17.7637 19.4415 17.7727 19.4486C17.7798 19.4557 17.7869 19.4629 17.7941 19.47C17.8012 19.4772 17.8084 19.4843 17.8155 19.4914L24.5066 26.1826C24.9671 26.643 24.9671 27.3944 24.5066 27.8549C24.0462 28.3154 23.2948 28.3154 22.8343 27.8549L18.1635 23.1841V28.874V29.7932V30.3589C18.1635 31.0086 17.6317 31.5422 16.9802 31.5422C16.3306 31.5422 15.7969 31.0104 15.7969 30.3589V29.7932V27.2249V23.1841L11.1261 27.8549C10.6817 28.3154 9.92856 28.3154 9.46987 27.8549Z" fill="#FEFEFE"/>
<path fill-rule="evenodd" clip-rule="evenodd" d="M9.46987 6.13771C9.00939 6.59819 9.00939 7.34958 9.46987 7.81005L16.161 14.5012C16.1681 14.5083 16.1753 14.5155 16.1824 14.5226C16.1896 14.5297 16.1967 14.5369 16.2038 14.544C16.211 14.5512 16.2181 14.5565 16.227 14.5636C16.2342 14.5708 16.2431 14.5761 16.2502 14.5833C16.2574 14.5904 16.2663 14.5958 16.2734 14.6011C16.2806 14.6065 16.2895 14.6136 16.2967 14.619C16.3127 14.6315 16.3288 14.6422 16.3448 14.6529C16.3538 14.6582 16.3609 14.6636 16.3698 14.6689C16.3788 14.6743 16.3859 14.6797 16.3948 14.6832C16.4037 14.6886 16.4109 14.6921 16.4198 14.6975C16.4287 14.7029 16.4377 14.7064 16.4448 14.7118C16.4537 14.7171 16.4626 14.7207 16.4698 14.7243C16.4787 14.7278 16.4876 14.7332 16.4965 14.7368C16.5055 14.7403 16.5144 14.7439 16.5233 14.7493C16.5322 14.7528 16.5412 14.7564 16.5501 14.76C16.559 14.7635 16.5679 14.7671 16.5769 14.7707C16.5858 14.7742 16.5947 14.7778 16.6036 14.7796C16.6126 14.7832 16.6215 14.785 16.6304 14.7885C16.6393 14.7921 16.6483 14.7939 16.6572 14.7975C16.6661 14.7992 16.675 14.8028 16.684 14.8046C16.6929 14.8064 16.7018 14.8099 16.7125 14.8117C16.7214 14.8135 16.7304 14.8153 16.7411 14.8189C16.75 14.8207 16.7589 14.8224 16.7696 14.8242C16.7785 14.826 16.7875 14.8278 16.7982 14.8296C16.8071 14.8314 16.816 14.8331 16.8267 14.8331C16.8357 14.8349 16.8464 14.8349 16.8553 14.8367C16.8642 14.8385 16.8749 14.8385 16.8838 14.8403C16.891 14.8403 16.8981 14.8421 16.907 14.8421H16.9124C16.9213 14.8421 16.932 14.8439 16.941 14.8439C16.9499 14.8439 16.957 14.8439 16.9659 14.8456C16.9749 14.8456 16.9838 14.8456 16.9927 14.8456C17.0016 14.8456 17.0088 14.8456 17.0177 14.8456H17.0195C17.0284 14.8456 17.0356 14.8456 17.0445 14.8439H17.0463C17.0534 14.8439 17.0605 14.8439 17.0677 14.8421H17.0712C17.0784 14.8421 17.0855 14.8403 17.0927 14.8403C17.1016 14.8403 17.1123 14.8385 17.1212 14.8367C17.1301 14.8349 17.1409 14.8349 17.1498 14.8331C17.1587 14.8314 17.1676 14.8296 17.1783 14.8296C17.1873 14.8278 17.1962 14.826 17.2069 14.8242C17.2158 14.8224 17.2247 14.8207 17.2354 14.8189C17.2444 14.8171 17.2533 14.8153 17.264 14.8117C17.2729 14.8099 17.2819 14.8064 17.2926 14.8046C17.3015 14.8028 17.3104 14.7992 17.3193 14.7975C17.3283 14.7957 17.3372 14.7921 17.3461 14.7885C17.355 14.785 17.364 14.7832 17.3729 14.7796C17.3818 14.776 17.3907 14.7725 17.3996 14.7707C17.4086 14.7671 17.4175 14.7635 17.4264 14.76C17.4353 14.7564 17.4443 14.7528 17.4532 14.7493C17.4621 14.7457 17.471 14.7421 17.48 14.7368C17.4889 14.7332 17.4978 14.7278 17.5067 14.7243C17.5157 14.7207 17.5246 14.7154 17.5317 14.7118C17.5406 14.7064 17.5496 14.7029 17.5567 14.6975C17.5656 14.6921 17.5728 14.6886 17.5817 14.6832C17.5906 14.6779 17.5978 14.6725 17.6067 14.6672C17.6156 14.6618 17.6227 14.6565 17.6317 14.6511C17.6406 14.6457 17.6477 14.6404 17.6567 14.635C17.6656 14.6297 17.6727 14.6243 17.6799 14.6172C17.687 14.6118 17.6959 14.6047 17.7031 14.5993C17.7102 14.594 17.7191 14.5868 17.7263 14.5815C17.7334 14.5744 17.7423 14.569 17.7495 14.5619C17.7566 14.5547 17.7637 14.5494 17.7727 14.5422C17.7798 14.5351 17.7869 14.528 17.7941 14.5208C17.8012 14.5137 17.8084 14.5065 17.8155 14.4994L24.5066 7.80826C24.9671 7.34779 24.9671 6.5964 24.5066 6.13593C24.0462 5.67546 23.2948 5.67546 22.8343 6.13593L18.1635 10.8067V5.12039V4.20123V3.63546C18.1635 2.9858 17.6317 2.45215 16.9802 2.45215C16.3306 2.45215 15.7969 2.98401 15.7969 3.63546V4.20123V6.76952V10.8103L11.1261 6.1395C10.6817 5.67724 9.92856 5.67724 9.46987 6.13771Z" fill="#FEFEFE"/>
<circle cx="44" cy="17" r="17" fill="#F0B90B"/>
<path fill-rule="evenodd" clip-rule="evenodd" d="M39.4678 15.6218L44.1115 10.9802L48.757 15.6256L51.4575 12.9234L44.1115 5.57568L36.7654 12.9215L39.4678 15.6218ZM32.1553 17.5305L34.8566 14.8292L37.558 17.5305L34.8566 20.2318L32.1553 17.5305ZM44.1121 24.0817L39.4684 19.4382L36.7623 22.1367L36.766 22.1405L44.1121 29.4844L51.4581 22.1367L51.46 22.1348L48.7576 19.4363L44.1121 24.0817ZM50.6611 17.5311L53.3624 14.8298L56.0638 17.5311L53.3624 20.2324L50.6611 17.5311ZM44.1119 14.7872L46.852 17.5291H46.8539L46.852 17.531L44.1119 20.2729L41.3718 17.5348L41.368 17.5291L41.3718 17.5253L41.8514 17.0457L42.0856 16.8134L44.1119 14.7872Z" fill="#0B0E11"/>
</svg>
