<svg width="121" height="32" viewBox="0 0 121 32" fill="none" xmlns="http://www.w3.org/2000/svg">
<path d="M4.61159 11.0572C6.69143 11.0572 8.37747 9.37113 8.37747 7.29128C8.37747 5.21144 6.69143 3.52539 4.61159 3.52539C2.53175 3.52539 0.845703 5.21144 0.845703 7.29128C0.845703 9.37113 2.53175 11.0572 4.61159 11.0572Z" fill="#050A5A"/>
<path d="M21.8593 11.057H16.6435C16.0033 11.057 15.4761 10.5297 15.4761 9.88953V4.67378C15.4761 4.03357 16.0033 3.50635 16.6435 3.50635H21.8593C22.4995 3.50635 23.0267 4.03357 23.0267 4.67378V9.88953C23.0267 10.5486 22.4995 11.057 21.8593 11.057Z" fill="#00FFB9"/>
<path d="M8.37726 14.6157H8.15131H2.42716C1.54218 14.6157 0.82666 15.3312 0.82666 16.2162V22.1663V28.0976C0.82666 28.9826 1.54218 29.6981 2.42716 29.6981H6.77676C7.66174 29.6981 8.37726 28.9826 8.37726 28.0976V23.7668C8.37726 22.8818 9.09278 22.1663 9.97776 22.1663H14.1014C14.9864 22.1663 15.7019 21.4508 15.7019 20.5658V16.2162C15.7019 15.3312 14.9864 14.6157 14.1014 14.6157H8.37726Z" fill="#00DAFF"/>
<path d="M37.2617 0.983398H39.4836V14.1263H37.2617V0.983398Z" fill="#050A5A"/>
<path d="M41.856 5.52151H44.0778V6.36884C44.5862 5.72864 45.3206 5.35205 46.1679 5.35205C47.147 5.35205 48.032 5.86044 48.6346 6.70777C49.1994 5.87927 50.0844 5.35205 51.1954 5.35205C53.0218 5.35205 54.3775 6.80191 54.3775 8.68486V14.1266H52.1557V8.85432C52.1557 8.007 51.5531 7.32914 50.7246 7.32914C49.8208 7.32914 49.2371 8.06349 49.2371 8.94847V14.1266H47.0152V8.85432C47.0152 8.007 46.4127 7.32914 45.5465 7.32914C44.6615 7.32914 44.0967 8.06349 44.0967 8.94847V14.1266H41.856V5.52151Z" fill="#050A5A"/>
<path d="M56.4302 5.52151H58.6521V6.44416C59.3299 5.7663 60.2526 5.35205 61.3823 5.35205C63.6984 5.35205 65.619 7.32914 65.619 9.83346C65.619 12.3378 63.6984 14.3149 61.3823 14.3149C60.2526 14.3149 59.3299 13.9006 58.6521 13.2228V18.0807H56.4302V5.52151ZM63.4159 9.83346C63.4159 8.45891 62.3238 7.3668 60.9681 7.3668C59.6124 7.3668 58.5014 8.45891 58.5014 9.83346C58.5014 11.208 59.6124 12.3001 60.9681 12.3001C62.3238 12.2813 63.4159 11.1892 63.4159 9.83346Z" fill="#050A5A"/>
<path d="M66.73 9.83346C66.73 7.34797 68.6882 5.35205 71.2867 5.35205C73.8475 5.35205 75.8246 7.32914 75.8246 9.83346C75.8246 12.3378 73.8475 14.3149 71.2867 14.3149C68.6882 14.296 66.73 12.3189 66.73 9.83346ZM73.678 9.83346C73.678 8.47774 72.6048 7.42329 71.2867 7.42329C69.9122 7.42329 68.8389 8.47774 68.8389 9.83346C68.8389 11.1892 69.9122 12.2625 71.2867 12.2625C72.6048 12.2436 73.678 11.1703 73.678 9.83346Z" fill="#050A5A"/>
<path d="M76.7285 13.0154L77.9713 11.4902C78.5738 12.1116 79.3646 12.4882 80.0425 12.4882C80.7204 12.4882 81.1346 12.1304 81.1346 11.6597C81.1346 11.0572 80.4379 10.9065 79.4023 10.5488C78.0654 10.078 76.9356 9.47549 76.9356 7.96913C76.9356 6.21799 78.442 5.33301 80.099 5.33301C81.3417 5.33301 82.3962 5.82257 83.0552 6.55692L81.756 7.87499C81.2664 7.38542 80.6074 7.04649 80.0237 7.04649C79.4776 7.04649 79.1199 7.32893 79.1199 7.78084C79.1199 8.36455 79.7412 8.53401 80.7392 8.85411C82.0196 9.28719 83.3188 9.87091 83.3188 11.5844C83.3188 13.3355 81.9631 14.277 80.099 14.277C78.6303 14.2958 77.4252 13.6933 76.7285 13.0154Z" fill="#050A5A"/>
<path d="M84.0908 13.0154L85.3336 11.4902C85.9361 12.1116 86.7269 12.4882 87.4048 12.4882C88.0827 12.4882 88.4969 12.1304 88.4969 11.6597C88.4969 11.0572 87.8002 10.9065 86.7646 10.5488C85.4277 10.078 84.298 9.47549 84.298 7.96913C84.298 6.21799 85.8043 5.33301 87.4613 5.33301C88.704 5.33301 89.7585 5.82257 90.4175 6.55692L89.1183 7.87499C88.6287 7.38542 87.9697 7.04649 87.386 7.04649C86.8399 7.04649 86.4822 7.32893 86.4822 7.78084C86.4822 8.36455 87.1035 8.53401 88.1015 8.85411C89.3819 9.28719 90.6811 9.87091 90.6811 11.5844C90.6811 13.3355 89.3254 14.277 87.4613 14.277C85.9926 14.2958 84.7875 13.6933 84.0908 13.0154Z" fill="#050A5A"/>
<path d="M92.1494 2.71595C92.1494 2.00043 92.752 1.43555 93.4486 1.43555C94.1641 1.43555 94.7479 2.00043 94.7479 2.71595C94.7479 3.43147 94.1641 3.99635 93.4486 3.99635C92.7331 3.99635 92.1494 3.43147 92.1494 2.71595ZM92.3565 5.52153H94.5407V14.1266H92.3565V5.52153Z" fill="#050A5A"/>
<path d="M98.9847 13.0154L98.9282 14.1263H96.8569V0.983398H99.0788V6.50042C99.7379 5.70959 100.773 5.31417 101.828 5.31417C104.238 5.31417 106.14 7.31009 106.14 9.81441C106.14 12.3187 104.238 14.3146 101.828 14.3146C100.642 14.2958 99.6249 13.8251 98.9847 13.0154ZM103.918 9.81441C103.918 8.4022 102.845 7.31009 101.451 7.31009C100.077 7.31009 98.9847 8.4022 98.9847 9.81441C98.9847 11.2266 100.077 12.3376 101.451 12.3376C102.845 12.3376 103.918 11.2266 103.918 9.81441Z" fill="#050A5A"/>
<path d="M107.872 0.983398H110.075V14.1263H107.872V0.983398Z" fill="#050A5A"/>
<path d="M120.808 10.2098H114.029C114.199 11.6032 115.197 12.507 116.458 12.507C117.362 12.507 118.209 12.0551 118.661 11.2643L120.431 11.9986C119.734 13.4108 118.285 14.2958 116.477 14.2958C113.747 14.2958 111.864 12.3187 111.864 9.81442C111.864 7.3101 113.784 5.33301 116.402 5.33301C118.887 5.33301 120.789 7.08415 120.827 9.72027L120.808 10.2098ZM114.255 8.53402H118.473C118.115 7.66786 117.437 7.12181 116.42 7.12181C115.366 7.10298 114.632 7.64903 114.255 8.53402Z" fill="#050A5A"/>
<path d="M37.2617 17.6851H45.4525V19.9069H39.4836V23.1456H44.7747V25.3675H39.4836V30.828H37.2617V17.6851Z" fill="#050A5A"/>
<path d="M46.8647 19.4176C46.8647 18.7021 47.4673 18.1372 48.164 18.1372C48.8795 18.1372 49.4632 18.7021 49.4632 19.4176C49.4632 20.1331 48.8795 20.698 48.164 20.698C47.4485 20.698 46.8647 20.1331 46.8647 19.4176ZM47.0719 22.2232H49.2561V30.8283H47.0719V22.2232Z" fill="#050A5A"/>
<path d="M51.5721 22.2232H53.7751V23.014C54.3965 22.3926 55.2061 22.0537 56.0723 22.0537C57.8046 22.0537 59.1603 23.4659 59.1603 25.2735V30.847H56.9384V25.556C56.9384 24.6522 56.2606 24.012 55.3756 24.012C54.453 24.012 53.7751 24.671 53.7563 25.556V30.847H51.5532V22.2232H51.5721Z" fill="#050A5A"/>
<path d="M60.7046 26.5163C60.7046 24.0309 62.644 22.0161 64.96 22.0161C66.184 22.0161 67.1254 22.468 67.7656 23.2024V22.2232H69.9875V30.8283H67.9163L67.8598 29.7173C67.2196 30.527 66.2404 30.9978 64.96 30.9978C62.6252 30.9978 60.7046 29.0207 60.7046 26.5163ZM67.8221 26.5163C67.8221 25.1418 66.7488 24.0497 65.3743 24.0497C63.9997 24.0497 62.9076 25.1418 62.9076 26.5163C62.9076 27.8909 63.9809 29.0018 65.3743 29.0018C66.7488 28.983 67.8221 27.8721 67.8221 26.5163Z" fill="#050A5A"/>
<path d="M72.2844 22.2232H74.4875V23.014C75.1089 22.3926 75.9185 22.0537 76.7847 22.0537C78.517 22.0537 79.8727 23.4659 79.8727 25.2735V30.847H77.6508V25.556C77.6508 24.6522 76.973 24.012 76.088 24.012C75.1654 24.012 74.4875 24.671 74.4687 25.556V30.847H72.2656V22.2232H72.2844Z" fill="#050A5A"/>
<path d="M81.417 26.5351C81.417 24.0496 83.3752 22.0537 85.9737 22.0537C86.6139 22.0537 87.2541 22.1855 87.8001 22.4303V24.8969C87.3671 24.3886 86.7269 24.0684 85.9737 24.0684C84.5803 24.0684 83.5447 25.1606 83.5447 26.5351C83.5447 27.9096 84.5615 28.9829 85.9737 28.9829C86.7269 28.9829 87.3671 28.6628 87.8001 28.1544V30.6399C87.2541 30.8847 86.6139 31.0165 85.9737 31.0165C83.3752 30.9977 81.417 29.0206 81.417 26.5351Z" fill="#050A5A"/>
<path d="M98.0431 26.9115H91.2645C91.434 28.3049 92.4319 29.2087 93.6935 29.2087C94.5973 29.2087 95.4446 28.7568 95.8965 27.9659L97.6665 28.7003C96.9698 30.1125 95.52 30.9975 93.7123 30.9975C90.9821 30.9975 89.0991 29.0204 89.0991 26.5161C89.0991 24.0118 91.0197 22.0347 93.637 22.0347C96.1225 22.0347 98.0243 23.7858 98.0619 26.4219L98.0431 26.9115ZM91.4716 25.2357H95.6894C95.3317 24.3695 94.6538 23.8235 93.637 23.8235C92.6014 23.8046 91.8482 24.3507 91.4716 25.2357Z" fill="#050A5A"/>
</svg>
